<?xml version="1.0" encoding="utf-8"?>
<!-- Generator: Adobe Illustrator 25.0.0, SVG Export Plug-In . SVG Version: 6.00 Build 0)  -->
<svg version="1.1" id="Capa_1" xmlns="http://www.w3.org/2000/svg" xmlns:xlink="http://www.w3.org/1999/xlink" x="0px" y="0px"
	 viewBox="0 0 254 142" style="enable-background:new 0 0 254 142;" xml:space="preserve">
<style type="text/css">
	.st0{fill:#00AF88;}
</style>
<g>
	<g>
		<g>
			<g>
				<path class="st0" d="M134.24,41.3c-4.28,2.31-7.93,5.49-9.94,9.99c1.76,0,3.51,0,5.27,0c-2.1-4.7-5.92-7.81-10.35-10.21
					c-1.46-0.79-2.92-1.58-4.38-2.37c-6.27-3.4-12.54-6.8-18.81-10.2c-7.6-4.12-15.21-8.24-22.81-12.37
					c-5.32-2.88-10.64-5.77-15.97-8.65c-1.6-0.87-3.13-1.83-5.01-1.92c-3.85-0.19-6.83,3.02-6.97,6.73c-0.04,0.99,0,2,0,2.99
					c0,4.05,0,8.11,0,12.16c0,5.18,0.3,10.56,4.88,13.87c1.33,0.96,2.91,1.71,4.35,2.5c2.45,1.35,4.89,2.71,7.34,4.06
					c7.3,4.03,14.59,8.07,21.89,12.1c6.47,3.58,12.95,7.16,19.42,10.74c1.42,0.78,2.83,1.56,4.25,2.35c1.45,0.8,2.4,1.55,3.07,2.96
					c-0.23-0.48,0.11,0.37,0.16,0.52c0.09,0.32,0.17,0.64,0.24,0.97c0.14,0.68,0.2,1.44,0.23,2.3c0.03,0.8,0.02,1.61,0.02,2.41
					c0,1.59,0,3.17,0,4.76c0,1.62,1.4,3.09,3.05,3.05c6.77-0.16,13.49-0.29,20.26-0.12c1.76,0.04,3.51,0.08,5.27,0.12
					c1.65,0.04,3.05-1.43,3.05-3.05c0-1.59,0-3.17,0-4.76c0-2.25-0.09-4.36,0.73-6.4c-0.19,0.47,0.12-0.21,0.2-0.34
					c0.06-0.1,0.44-0.66,0.31-0.5c0.44-0.56,0.91-0.96,1.44-1.31c0.32-0.21,0.64-0.39,0.97-0.57c0.44-0.24,0.87-0.48,1.31-0.72
					c5.19-2.87,10.37-5.73,15.56-8.6c7.36-4.07,14.72-8.14,22.08-12.21c5.08-2.81,10.16-5.61,15.23-8.42
					c2.66-1.47,5.29-2.99,6.6-5.92c1.7-3.8,1.42-8,1.42-12.06c0-3.83,0-7.66,0-11.49c0-1.64-0.03-3.23-0.88-4.72
					c-1.86-3.26-5.9-4.15-9.14-2.52c-3.1,1.56-6.11,3.31-9.16,4.97c-6.76,3.66-13.51,7.32-20.27,10.99
					c-7.19,3.9-14.37,7.79-21.56,11.69c-4.24,2.3-8.48,4.6-12.72,6.9C134.65,41.08,134.45,41.19,134.24,41.3
					c-3.45,1.87-0.38,7.14,3.08,5.27c2.92-1.58,5.85-3.17,8.77-4.75c6.63-3.6,13.26-7.19,19.9-10.79c7.1-3.85,14.21-7.7,21.31-11.55
					c4.45-2.41,8.91-4.83,13.36-7.24c0.32-0.17,0.63-0.37,0.95-0.52c0.02-0.01,0.03-0.02,0.05-0.03c-0.37,0.2,0.41-0.16,0.07-0.03
					c-0.24,0.09,0.12-0.01,0.2,0c-0.33-0.04-0.15-0.06,0.07,0.01c0.51,0.18-0.11-0.13,0.34,0.17c-0.41-0.27,0.26,0.29-0.05-0.07
					c0.11,0.13,0.22,0.2,0.13,0.17c-0.09-0.03,0.01,0.01,0.06,0.21c-0.08-0.31,0.01-0.03,0.01,0.16c0.06,2.92,0,5.85,0,8.77
					c0,2.84,0.02,5.69,0,8.53c-0.02,2.92-0.28,5.59-2.95,7.14c-0.46,0.27-0.94,0.51-1.4,0.76c-4.5,2.49-9,4.98-13.5,7.46
					c-7.18,3.97-14.36,7.94-21.55,11.91c-5.69,3.15-11.38,6.29-17.07,9.44c-0.94,0.52-1.88,1.03-2.82,1.56
					c-2.89,1.62-5.09,4.1-5.94,7.34c-0.61,2.35-0.62,4.79-0.62,7.2c0,1.52,0,3.03,0,4.55c1.02-1.02,2.03-2.03,3.05-3.05
					c-6.77-0.16-13.49-0.29-20.26-0.12c-1.76,0.04-3.51,0.08-5.27,0.12c1.02,1.02,2.03,2.03,3.05,3.05c0-4.01,0.46-8.51-0.8-12.36
					c-1.13-3.44-3.69-5.59-6.74-7.27c-4.97-2.75-9.93-5.49-14.9-8.24c-7.42-4.1-14.85-8.21-22.27-12.31
					c-5.31-2.94-10.62-5.87-15.93-8.81c-0.44-0.25-0.89-0.5-1.33-0.74c-1.73-0.94-2.85-1.72-3.37-3.45
					c-0.9-2.96-0.51-6.78-0.51-10.03c0-3.65,0-7.3,0-10.95c0-0.15,0-0.3,0-0.44c0-0.18,0.11-0.59,0.01-0.24
					c0.05-0.2,0.16-0.24,0.06-0.21c-0.21,0.07,0.32-0.11,0.08-0.09c0.05,0,0.09-0.06,0.13-0.08c0.28-0.18,0.01-0.03-0.07-0.01
					c0.14-0.04,0.28-0.1,0.43-0.12c0.36-0.05-0.02,0.01-0.07,0.02c0.2-0.03,0.42,0.05,0.1-0.01c0.66,0.12-0.05-0.06,0.3,0.11
					c0.15,0.07,0.3,0.16,0.45,0.24c4.26,2.31,8.51,4.62,12.77,6.92c7.3,3.96,14.59,7.91,21.89,11.87
					c6.8,3.69,13.61,7.38,20.41,11.06c3.35,1.82,6.8,3.53,10.08,5.49c2.9,1.73,4.98,3.92,6.37,7.02c0.9,2,4.37,2,5.27,0
					c1.64-3.66,4.28-5.93,7.75-7.8C140.78,44.71,137.7,39.44,134.24,41.3z"/>
			</g>
		</g>
		<g>
			<g>
				<path class="st0" d="M153.29,93.15c9.46-10.47,19.07-21.17,30.72-29.27c5.92-4.11,12.27-7.44,19.11-9.73
					c7.54-2.53,15.36-4.23,22.7-7.33c7.38-3.12,14.23-7.69,18.6-14.55c-1.76,0-3.51,0-5.27,0c4.68,7.95,4.13,17.7,0.98,26.1
					c-3.39,9.04-9.76,16.83-16.16,23.91c-6.44,7.12-14.01,13.8-23.62,15.95c-4.99,1.12-9.81,0.18-14.8-0.35
					c-2.8-0.29-5.62-0.29-8.38,0.35c-2.47,0.57-4.78,1.64-7.23,2.24c-3.7,0.9-7.88-0.27-10.81-2.96c-1.47-1.35-2.6-2.92-3.18-4.59
					c-0.37-1.06-0.74-1.95-1.49-2.79c-0.39-0.43-0.77-0.86-1.16-1.29c-1.1-1.23-3.2-1.12-4.32,0c-1.22,1.22-1.1,3.08,0,4.32
					c0.52,0.58,1.04,1.16,1.56,1.74c-0.26-0.45-0.52-0.9-0.78-1.35c2.45,8.92,11.89,14.7,20.93,12.99c2.56-0.48,4.94-1.6,7.45-2.27
					c2.59-0.68,5.24-0.53,7.87-0.24c2.71,0.31,5.41,0.79,8.14,0.88c2.61,0.08,5.26-0.23,7.81-0.8c10.22-2.29,18.64-9.18,25.58-16.71
					c7.08-7.69,13.8-16.08,17.83-25.81c4.26-10.28,4.83-22.58-0.96-32.41c-1.19-2.03-4.05-1.92-5.27,0
					c-7.88,12.36-24.18,14.65-36.99,18.86c-7.05,2.31-13.71,5.52-19.88,9.65c-5.98,4-11.51,8.68-16.7,13.66
					c-5.81,5.57-11.22,11.52-16.61,17.49c-1.1,1.22-1.21,3.11,0,4.32C150.1,94.27,152.18,94.38,153.29,93.15z"/>
			</g>
		</g>
		<g>
			<g>
				<path class="st0" d="M106.04,88.83C96.43,78.19,86.65,67.55,74.92,59.2c-5.93-4.22-12.35-7.68-19.2-10.17
					c-7.47-2.72-15.29-4.33-22.7-7.21c-6.65-2.58-13.25-6.51-17.15-12.64c-1.22-1.92-4.08-2.03-5.27,0
					c-5.12,8.71-5.31,19.56-2.23,29c3.26,9.97,9.67,18.46,16.47,26.28c6.8,7.81,14.57,15.09,24.51,18.58
					c5.1,1.79,10.36,2.17,15.7,1.5c2.69-0.34,5.39-0.8,8.12-0.76c2.65,0.03,5.04,0.88,7.52,1.73c2.55,0.87,5.21,1.53,7.92,1.34
					c2.57-0.18,5-0.86,7.3-2.02c4.5-2.26,8.01-6.43,9.35-11.29c-0.26,0.45-0.52,0.9-0.78,1.35c0.52-0.58,1.04-1.16,1.56-1.74
					C107.14,91.92,107.25,90.04,106.04,88.83c-1.12-1.12-3.21-1.23-4.32,0c-0.84,0.93-1.93,1.89-2.35,3.09
					c-0.6,1.7-1.22,3.17-2.39,4.48c-2.42,2.71-5.8,4.35-9.22,4.38c-1.09,0.01-1.44-0.03-2.46-0.27c-1.3-0.3-2.57-0.75-3.83-1.18
					c-2.56-0.88-5.11-1.56-7.84-1.65c-5.3-0.17-10.46,1.48-15.78,1.04C48.25,97.95,40.06,91.67,33.59,85
					c-6.75-6.97-13.23-14.77-17.41-23.59c-4.28-9.04-5.56-20.23-0.32-29.15c-1.76,0-3.51,0-5.27,0c8.41,13.2,24.25,16.6,38.19,20.89
					c7.05,2.17,13.64,5.11,19.84,9.13c5.9,3.83,11.26,8.38,16.34,13.23c5.86,5.61,11.32,11.62,16.76,17.63
					c1.11,1.22,3.19,1.12,4.32,0C107.25,91.93,107.14,90.06,106.04,88.83z"/>
			</g>
		</g>
	</g>
	<g>
		<g>
			<path class="st0" d="M110.53,118.36c-1.02,3.37-2.87,6.73-5.39,9.21c-2.18,2.15-5.07,3.38-8.03,4.21
				c-3.54,0.99-7.21,1.49-10.88,1.51c-3.72,0.02-7.79-0.2-11.23-1.75c-2.91-1.31-5.35-2.95-6.7-5.66c-0.49-0.99-0.7-2.21-0.61-3.54
				c0.02-0.31,0.19-1.11,0.35-1.68c0.08-0.28,0.16-0.56,0.24-0.84c0.05-0.16,0.39-1.07,0.26-0.78c0.13-0.29,0.34-0.55,0.45-0.84
				c-0.1,0.27-0.16-0.03-0.04,0.03c0.03-0.03,0.06-0.07,0.09-0.1c-0.09,0.09-0.19,0.14-0.3,0.17c0.34-0.15,1.68-0.29,2.38-0.39
				c2.05-0.3,4.1-0.6,6.15-0.85c4.31-0.52,8.64-0.86,12.98-0.88c4.61-0.03,9.28,0.26,13.78,1.32c1.59,0.38,3.16,0.88,4.73,1.33
				c0.32,0.09,0.64,0.19,0.95,0.29c0.15,0.05,1.09,0.46,0.59,0.21c0.12,0.06,0.24,0.13,0.36,0.18c0.4,0.2,0.18,0.3,0.1,0
				c0-0.01,0.3,0.44,0.06,0.01C110.62,119.17,110.42,118.81,110.53,118.36c-0.37,1.61,0.49,3.3,2.13,3.75
				c1.54,0.42,3.39-0.52,3.75-2.13c1.06-4.66-3.41-6.31-7.02-7.31c-4.51-1.24-8.92-2.13-13.6-2.44c-5.05-0.33-10.13-0.12-15.16,0.36
				c-2.68,0.26-5.35,0.6-8.01,0.98c-1.2,0.17-2.4,0.35-3.6,0.52c-1.13,0.16-2.27,0.28-3.26,0.9c-3.13,1.96-4.42,7.27-4.17,10.73
				c0.3,4.11,2.44,7.7,5.65,10.24c7.74,6.12,18.69,6.24,27.99,4.5c4.6-0.86,9.12-2.44,12.82-5.36c4.05-3.2,6.89-8.26,8.37-13.13
				C117.56,116.21,111.67,114.6,110.53,118.36z"/>
		</g>
	</g>
	<g>
		<g>
			<path class="st0" d="M137.46,119.98c1.33,4.4,3.76,8.83,7.1,12.04c3.06,2.95,7.07,4.74,11.14,5.8c4.49,1.18,9.24,1.72,13.88,1.55
				c5.04-0.19,9.88-1.03,14.32-3.53c3.55-2,6.54-5.07,7.82-8.99c1.19-3.66,0.49-8.14-1.4-11.46c-1.25-2.19-3.08-2.94-5.46-3.29
				c-2.59-0.38-5.18-0.76-7.77-1.08c-5.02-0.62-10.09-1.01-15.15-0.94c-5.59,0.08-11.23,0.69-16.59,2.34
				C141.61,113.57,136.29,114.83,137.46,119.98c0.37,1.61,2.22,2.55,3.75,2.13c1.65-0.45,2.5-2.14,2.13-3.75
				c0.11,0.47-0.15,0.95-0.4,1.32c0.26-0.37,0.09-0.05-0.07,0.04c0.11-0.06,0.22-0.14,0.33-0.2c0.12-0.06,0.24-0.12,0.36-0.18
				c-0.05,0.02-0.42,0.16-0.08,0.03c0.36-0.14,0.72-0.26,1.09-0.37c1.23-0.38,2.48-0.74,3.72-1.09c3.88-1.11,7.94-1.53,11.96-1.67
				c8.44-0.3,16.66,0.97,24.98,2.11c0,0-0.42-0.19-0.4-0.2c0.07-0.04,0.24,0.4,0.12,0.14c-0.06-0.13,0.24,0.47,0.31,0.62
				c0.23,0.48-0.12-0.33,0.07,0.17c0.06,0.15,0.11,0.3,0.16,0.45c0.11,0.33,0.21,0.67,0.3,1.01c0.09,0.33,0.18,0.66,0.26,0.99
				c0.03,0.13,0.13,0.83,0.12,0.65c0.04,0.41,0.04,0.82,0.03,1.23c-0.01,0.17-0.01,0.34-0.03,0.52c0.03-0.32-0.02,0.1-0.04,0.19
				c-0.27,1.37-0.74,2.39-1.58,3.44c-0.81,1.01-1.95,1.95-3.1,2.66c-3.24,1.98-6.68,2.72-10.43,2.98
				c-3.91,0.28-7.84,0.03-11.68-0.77c-3.43-0.71-6.98-1.8-9.64-3.96c-3.06-2.49-5.23-6.36-6.36-10.09
				C142.21,114.61,136.32,116.2,137.46,119.98z"/>
		</g>
	</g>
</g>
</svg>
