<?xml version="1.0" encoding="utf-8"?>
<!-- Generator: Adobe Illustrator 25.0.0, SVG Export Plug-In . SVG Version: 6.00 Build 0)  -->
<svg version="1.1" id="Capa_1" xmlns="http://www.w3.org/2000/svg" xmlns:xlink="http://www.w3.org/1999/xlink" x="0px" y="0px"
	 viewBox="0 0 26.93 26.93" style="enable-background:new 0 0 26.93 26.93;" xml:space="preserve">
<style type="text/css">
	.st0{fill:#00AF88;}
</style>
<g>
	<g>
		<path class="st0" d="M10.36,12.56c-0.01,0.04-0.1,0.3-0.05,0.17c-0.05,0.11-0.11,0.22-0.16,0.33c-0.07,0.12-0.15,0.24-0.23,0.36
			c-0.07,0.11-0.02,0.03,0,0.01c-0.05,0.06-0.1,0.12-0.15,0.17c-0.04,0.04-0.24,0.21-0.1,0.11c-0.09,0.06-0.18,0.12-0.28,0.17
			c-0.05,0.03-0.1,0.05-0.15,0.08c-0.17,0.08,0.14-0.05-0.03,0.02c-0.12,0.05-0.25,0.09-0.37,0.12c-0.57,0.16-0.82,0.19-1.39,0.2
			c-0.28,0-0.55-0.01-0.83-0.04c0.01,0-0.22-0.03-0.11-0.01c0.11,0.02-0.09-0.02-0.09-0.02c-0.16-0.03-0.32-0.07-0.47-0.14
			c0.07,0.03-0.16-0.09-0.2-0.11c-0.09-0.05-0.18-0.11-0.27-0.17c0.14,0.11-0.04-0.05-0.08-0.09c-0.01-0.01-0.11-0.14-0.04-0.04
			c0.07,0.1-0.04-0.07-0.05-0.09c-0.1-0.11,0.03,0.15,0,0c-0.01-0.04-0.02-0.1-0.04-0.14c0.01,0.03,0,0.18,0.01,0.06
			c0-0.05,0-0.1,0-0.15c0,0.17,0.01-0.01,0.03-0.09c0.01-0.04,0.02-0.08,0.04-0.13c0.02-0.05,0.1-0.16,0.03-0.09
			c-0.03,0.04-0.05,0.1-0.09,0.14c-0.08,0.07-0.47,0.17-0.2,0.17c0.13,0,0.27-0.04,0.39-0.06c0.32-0.05,0.38-0.06,0.68-0.09
			c0.61-0.07,1.21-0.11,1.82-0.12c0.66,0,1.23,0.03,1.81,0.16c0.23,0.05,0.45,0.12,0.67,0.19c0.1,0.03,0.2,0.07,0.3,0.09
			c-0.01,0-0.19-0.1-0.09-0.04c0.05,0.03,0.05,0.02-0.03-0.03c-0.18-0.14-0.29-0.34-0.32-0.59c-0.07,0.59,0.57,1.16,1.13,1.13
			c0.68-0.03,1.06-0.5,1.13-1.13c0.11-0.92-0.75-1.4-1.49-1.61c-0.73-0.2-1.45-0.35-2.2-0.4c-0.82-0.06-1.65-0.02-2.46,0.06
			c-0.43,0.04-0.86,0.1-1.3,0.16c-0.39,0.06-0.81,0.08-1.16,0.28C3.3,11.74,3,12.73,3.01,13.46c0.01,0.8,0.4,1.56,1.01,2.07
			c1.34,1.11,3.18,1.18,4.82,0.89c0.83-0.15,1.63-0.46,2.28-0.99c0.69-0.56,1.16-1.42,1.42-2.26c0.18-0.57-0.21-1.26-0.79-1.4
			C11.14,11.63,10.55,11.95,10.36,12.56z"/>
	</g>
	<g>
		<path class="st0" d="M14.38,13.16c0.24,0.76,0.64,1.51,1.21,2.08c0.54,0.54,1.27,0.88,2,1.07c1.54,0.4,3.42,0.43,4.82-0.42
			c0.65-0.4,1.18-1,1.4-1.74c0.21-0.73,0.07-1.64-0.34-2.27c-0.52-0.8-1.52-0.78-2.38-0.89c-0.81-0.1-1.62-0.17-2.43-0.16
			c-0.91,0.01-1.81,0.13-2.68,0.39c-0.78,0.23-1.77,0.64-1.65,1.65c0.07,0.59,0.47,1.16,1.13,1.13c0.55-0.02,1.21-0.5,1.13-1.13
			c0.02,0.16-0.27,0.47-0.32,0.59c-0.02,0.05-0.08,0.08,0.01,0.02c-0.13,0.1-0.12,0.05,0.03,0.01c0.19-0.06,0.37-0.11,0.56-0.16
			c0.57-0.16,0.98-0.19,1.57-0.21c0.61-0.02,1.22,0.01,1.83,0.06c0.27,0.02,0.54,0.05,0.81,0.09c-0.1-0.01,0.18,0.03,0.22,0.03
			c0.17,0.02,0.35,0.08,0.52,0.08c0.1,0,0.24,0.1-0.05-0.08c-0.12-0.07-0.15-0.09-0.23-0.18c-0.01-0.01-0.06-0.18-0.02-0.05
			c0.01,0.04,0.03,0.09,0.04,0.13c0.03,0.09,0.05,0.17,0.07,0.26c-0.04-0.23-0.04,0.19-0.01,0.06c0.02-0.11-0.15,0.24-0.01,0.04
			c-0.04,0.06-0.16,0.24-0.04,0.1c-0.07,0.08-0.14,0.15-0.21,0.22c0.13-0.13-0.09,0.06-0.15,0.1c-0.44,0.26-0.77,0.3-1.26,0.33
			c-0.3,0.02-0.6,0.01-0.9-0.01c-0.04,0-0.36-0.05-0.22-0.02c-0.13-0.02-0.25-0.04-0.38-0.07c-0.27-0.06-0.54-0.13-0.8-0.23
			c0.16,0.06-0.13-0.07-0.18-0.1c-0.05-0.03-0.3-0.21-0.17-0.1c-0.24-0.21-0.28-0.27-0.41-0.48c-0.09-0.14-0.17-0.28-0.24-0.43
			c0,0-0.08-0.18-0.04-0.09c0.03,0.07-0.06-0.2-0.06-0.2c-0.18-0.57-0.8-0.99-1.4-0.79C14.61,11.95,14.2,12.56,14.38,13.16z"/>
	</g>
</g>
</svg>
