<?xml version="1.0" encoding="utf-8"?>
<!-- Generator: Adobe Illustrator 25.0.0, SVG Export Plug-In . SVG Version: 6.00 Build 0)  -->
<svg version="1.1" id="Capa_1" xmlns="http://www.w3.org/2000/svg" xmlns:xlink="http://www.w3.org/1999/xlink" x="0px" y="0px"
	 viewBox="0 0 44.4 29.62" style="enable-background:new 0 0 44.4 29.62;" xml:space="preserve">
<style type="text/css">
	.st0{fill:#00AF88;}
</style>
<g>
	<g>
		<g>
			<path d="M22.86,6.85c-0.75,0.43-1.34,0.96-1.73,1.74c0.65,0,1.31,0,1.96,0c-0.91-1.81-3.62-2.76-5.31-3.68
				c-1.96-1.06-3.9-2.18-5.89-3.19c-1.31-0.66-2.6,0.04-2.67,1.52C9.17,4.33,9.04,5.77,9.38,6.82c0.31,0.95,1.13,1.34,1.93,1.78
				c1.08,0.6,2.17,1.2,3.25,1.8c1.18,0.65,2.35,1.3,3.53,1.95c0.23,0.13,0.58,0.24,0.78,0.43c0.33,0.32,0.21,1.01,0.21,1.49
				c0,0.6,0.52,1.15,1.13,1.13c1.28-0.03,2.54-0.03,3.82,0c0.61,0.01,1.13-0.53,1.13-1.13c0-0.45-0.11-1.17,0.19-1.48
				c0.11-0.11,0.34-0.19,0.47-0.26c0.9-0.5,1.8-1,2.71-1.5c1.71-0.94,3.45-1.84,5.13-2.83c1.3-0.77,1.35-1.99,1.35-3.35
				c0-1.25,0.27-3.13-1.42-3.39c-0.76-0.12-1.42,0.35-2.06,0.7c-1.01,0.55-2.02,1.09-3.03,1.64C26.62,4.81,24.74,5.83,22.86,6.85
				c-1.28,0.7-0.14,2.66,1.15,1.96c1.41-0.76,2.82-1.53,4.23-2.29c1.09-0.59,2.17-1.18,3.26-1.77c0.61-0.33,1.45-0.62,1.98-1.07
				c0.04-0.03,0.11-0.04,0.14-0.08c0.19-0.24-0.74-0.75-0.88-0.44c-0.02,0.04,0,0.15,0,0.18c-0.1,0.54,0,1.2,0,1.75
				c0,0.23,0.07,0.86-0.05,1.04c-0.07,0.1-0.43,0.24-0.53,0.3c-1.9,1.05-3.8,2.1-5.7,3.15c-0.73,0.4-1.48,0.78-2.18,1.21
				c-1.34,0.82-1.38,2.06-1.38,3.48c0.38-0.38,0.76-0.76,1.13-1.13c-1.28-0.03-2.54-0.03-3.82,0c0.38,0.38,0.76,0.76,1.13,1.13
				c0-1.38-0.03-2.64-1.33-3.45c-0.54-0.33-1.11-0.62-1.67-0.92c-2.01-1.11-4.01-2.22-6.02-3.33c-0.18-0.1-0.4-0.19-0.56-0.31
				c-0.29-0.22-0.26-0.44-0.26-0.81c-0.01-0.56,0-1.12,0-1.67c0-0.15,0.06-0.47,0-0.61c-0.14-0.32-1.1,0.18-0.82,0.47
				c0.41,0.44,1.33,0.72,1.85,1c1.07,0.58,2.14,1.16,3.22,1.74c1.12,0.61,2.24,1.21,3.36,1.82c0.74,0.4,1.64,0.75,2.04,1.53
				c0.37,0.74,1.59,0.74,1.96,0c0.23-0.46,0.48-0.68,0.92-0.92C25.28,8.09,24.14,6.12,22.86,6.85z"/>
		</g>
		<g>
			<path d="M26.54,18.7c1.84-2.04,3.76-4.2,6.32-5.34c1.33-0.59,2.78-0.82,4.13-1.37c1.33-0.54,2.48-1.32,3.29-2.53
				c-0.65,0-1.31,0-1.96,0c0.82,1.46,0.32,3.16-0.5,4.5c-0.86,1.41-2.09,2.91-3.5,3.78c-0.72,0.45-1.49,0.69-2.34,0.64
				c-0.91-0.06-1.74-0.26-2.65-0.02c-0.64,0.17-1.19,0.53-1.81,0.11c-0.24-0.17-0.33-0.35-0.44-0.61c-0.13-0.3-0.31-0.52-0.53-0.76
				c-0.98-1.09-2.58,0.52-1.61,1.61c0.08,0.09,0.16,0.17,0.23,0.26c-0.1-0.17-0.19-0.33-0.29-0.5c0.29,0.93,0.92,1.72,1.81,2.14
				c1.04,0.49,1.96,0.34,3.02,0.01c0.98-0.3,1.98,0.11,2.98,0.03c1.15-0.09,2.24-0.54,3.18-1.2c1.69-1.2,3.25-3.01,4.21-4.84
				c1.04-1.96,1.32-4.3,0.21-6.29c-0.44-0.78-1.5-0.69-1.96,0c-0.69,1.03-1.9,1.52-3.04,1.88c-1.42,0.45-2.85,0.8-4.17,1.5
				c-2.44,1.3-4.35,3.38-6.17,5.4C23.95,18.17,25.55,19.78,26.54,18.7z"/>
		</g>
		<g>
			<path d="M19.47,17.09c-1.83-2.02-3.74-4.1-6.17-5.4c-1.28-0.68-2.67-1.04-4.05-1.47C8.07,9.86,6.8,9.37,6.09,8.31
				c-0.46-0.69-1.52-0.78-1.96,0c-1.12,1.99-0.83,4.32,0.21,6.29c0.97,1.83,2.52,3.64,4.21,4.84c0.91,0.64,1.95,1.07,3.06,1.19
				c1.04,0.11,2.08-0.32,3.09-0.01c1.05,0.32,1.98,0.47,3.02-0.01c0.89-0.42,1.52-1.21,1.81-2.14c-0.1,0.17-0.19,0.33-0.29,0.5
				c0.08-0.09,0.16-0.17,0.23-0.26c0.97-1.08-0.63-2.7-1.61-1.61c-0.22,0.24-0.39,0.45-0.53,0.76c-0.11,0.24-0.19,0.42-0.41,0.59
				c-0.58,0.43-1.12,0.13-1.73-0.05c-0.95-0.28-1.81-0.08-2.76-0.01c-0.85,0.05-1.62-0.19-2.34-0.64c-1.38-0.85-2.59-2.32-3.44-3.69
				c-0.85-1.36-1.4-3.1-0.56-4.6c-0.65,0-1.31,0-1.96,0C4.9,10.62,6,11.39,7.28,11.93c1.38,0.58,2.89,0.82,4.26,1.43
				c2.56,1.14,4.48,3.3,6.32,5.34C18.85,19.78,20.45,18.17,19.47,17.09z"/>
		</g>
	</g>
	<g>
		<path d="M19.01,24.08c-0.01,0.04-0.1,0.3-0.05,0.17c-0.05,0.11-0.11,0.22-0.16,0.33c-0.07,0.12-0.15,0.24-0.23,0.36
			c-0.07,0.11-0.02,0.03,0,0.01c-0.05,0.06-0.1,0.12-0.15,0.17c-0.04,0.04-0.24,0.21-0.1,0.11c-0.09,0.06-0.18,0.12-0.28,0.17
			c-0.05,0.03-0.1,0.05-0.15,0.08c-0.17,0.08,0.14-0.05-0.03,0.02c-0.12,0.05-0.25,0.09-0.37,0.12c-0.57,0.16-0.82,0.19-1.39,0.2
			c-0.28,0-0.55-0.01-0.83-0.04c0.01,0-0.22-0.03-0.11-0.01c0.11,0.02-0.09-0.02-0.09-0.02c-0.16-0.03-0.32-0.07-0.47-0.14
			c0.07,0.03-0.16-0.09-0.2-0.11c-0.09-0.05-0.18-0.11-0.27-0.17c0.14,0.11-0.04-0.05-0.08-0.09c-0.01-0.01-0.11-0.14-0.04-0.04
			c0.07,0.1-0.04-0.07-0.05-0.09c-0.1-0.11,0.03,0.15,0,0c-0.01-0.04-0.02-0.1-0.04-0.14c0.01,0.03,0,0.18,0.01,0.06
			c0-0.05,0-0.1,0-0.15c0,0.17,0.01-0.01,0.03-0.09c0.01-0.04,0.02-0.08,0.04-0.13c0.02-0.05,0.1-0.16,0.03-0.09
			c-0.03,0.04-0.05,0.1-0.09,0.14c-0.08,0.07-0.47,0.17-0.2,0.17c0.13,0,0.27-0.04,0.39-0.06c0.32-0.05,0.38-0.06,0.68-0.09
			c0.61-0.07,1.21-0.11,1.82-0.12c0.66,0,1.23,0.03,1.81,0.16c0.23,0.05,0.45,0.12,0.67,0.19c0.1,0.03,0.2,0.07,0.3,0.09
			c-0.01,0-0.19-0.1-0.09-0.04c0.05,0.03,0.05,0.02-0.03-0.03c-0.18-0.14-0.29-0.34-0.32-0.59c-0.07,0.59,0.57,1.16,1.13,1.13
			c0.68-0.03,1.06-0.5,1.13-1.13c0.11-0.92-0.75-1.4-1.49-1.61c-0.73-0.2-1.45-0.35-2.2-0.4c-0.82-0.06-1.65-0.02-2.46,0.06
			c-0.43,0.04-0.86,0.1-1.3,0.16c-0.39,0.06-0.81,0.08-1.16,0.28c-0.67,0.38-0.97,1.37-0.96,2.1c0.01,0.8,0.4,1.56,1.01,2.07
			c1.34,1.11,3.18,1.18,4.82,0.89c0.83-0.15,1.63-0.46,2.28-0.99c0.69-0.56,1.16-1.42,1.42-2.26c0.18-0.57-0.21-1.26-0.79-1.4
			C19.79,23.14,19.2,23.47,19.01,24.08z"/>
	</g>
	<g>
		<path d="M23.03,24.68c0.24,0.76,0.64,1.51,1.21,2.08c0.54,0.54,1.27,0.88,2,1.07c1.54,0.4,3.42,0.43,4.82-0.42
			c0.65-0.4,1.18-1,1.4-1.74c0.21-0.73,0.07-1.64-0.34-2.27c-0.52-0.8-1.52-0.78-2.38-0.89c-0.81-0.1-1.62-0.17-2.43-0.16
			c-0.91,0.01-1.81,0.13-2.68,0.39c-0.78,0.23-1.77,0.64-1.65,1.65c0.07,0.59,0.47,1.16,1.13,1.13c0.55-0.02,1.21-0.5,1.13-1.13
			c0.02,0.16-0.27,0.47-0.32,0.59c-0.02,0.05-0.08,0.08,0.01,0.02c-0.13,0.1-0.12,0.05,0.03,0.01c0.19-0.06,0.37-0.11,0.56-0.16
			c0.57-0.16,0.98-0.19,1.57-0.21c0.61-0.02,1.22,0.01,1.83,0.06c0.27,0.02,0.54,0.05,0.81,0.09c-0.1-0.01,0.18,0.03,0.22,0.03
			c0.17,0.02,0.35,0.08,0.52,0.08c0.1,0,0.24,0.1-0.05-0.08c-0.12-0.07-0.15-0.09-0.23-0.18c-0.01-0.01-0.06-0.18-0.02-0.05
			c0.01,0.04,0.03,0.09,0.04,0.13c0.03,0.09,0.05,0.17,0.07,0.26c-0.04-0.23-0.04,0.19-0.01,0.06c0.02-0.11-0.15,0.24-0.01,0.04
			c-0.04,0.06-0.16,0.24-0.04,0.1c-0.07,0.08-0.14,0.15-0.21,0.22c0.13-0.13-0.09,0.06-0.15,0.1c-0.44,0.26-0.77,0.3-1.26,0.33
			c-0.3,0.02-0.6,0.01-0.9-0.01c-0.04,0-0.36-0.05-0.22-0.02c-0.13-0.02-0.25-0.04-0.38-0.07c-0.27-0.06-0.54-0.13-0.8-0.23
			c0.16,0.06-0.13-0.07-0.18-0.1c-0.05-0.03-0.3-0.21-0.17-0.1c-0.24-0.21-0.28-0.27-0.41-0.48c-0.09-0.14-0.17-0.28-0.24-0.43
			c0,0-0.08-0.18-0.04-0.09c0.03,0.07-0.06-0.2-0.06-0.2c-0.18-0.57-0.8-0.99-1.4-0.79C23.26,23.47,22.85,24.07,23.03,24.68z"/>
	</g>
</g>
</svg>
