<?xml version="1.0" encoding="utf-8"?>
<!-- Generator: Adobe Illustrator 25.0.0, SVG Export Plug-In . SVG Version: 6.00 Build 0)  -->
<svg version="1.1" id="Capa_1" xmlns="http://www.w3.org/2000/svg" xmlns:xlink="http://www.w3.org/1999/xlink" x="0px" y="0px"
	 viewBox="0 0 26.93 26.93" style="enable-background:new 0 0 26.93 26.93;" xml:space="preserve">
<style type="text/css">
	.st0{fill:#00AF88;}
</style>
<g>
	<path class="st0" d="M12.18,6.96c0.35-0.19,0.64-0.4,0.86-0.62c0.2-0.21,0.36-0.45,0.49-0.73c0.12,0.28,0.27,0.52,0.47,0.72
		c0.21,0.22,0.49,0.42,0.84,0.6l9.58,5.11c0.36,0.19,0.81-0.08,0.82-0.49l0.03-2.6c0-0.24-0.01-0.44-0.05-0.6
		c-0.03-0.16-0.08-0.31-0.15-0.42C25,7.81,24.92,7.71,24.82,7.64c-0.1-0.08-0.21-0.14-0.33-0.2l-8.27-4.5
		c-0.27-0.14-0.46-0.32-0.57-0.55c-0.12-0.23-0.17-0.56-0.17-1l0.01-0.91l-1.91,0.07l-1.91-0.02l-0.01,0.91
		c-0.01,0.44-0.07,0.78-0.19,1.01c-0.12,0.23-0.32,0.42-0.59,0.56l-8.38,4.7C2.38,7.75,2.27,7.82,2.17,7.9
		c-0.1,0.08-0.18,0.18-0.25,0.3C1.85,8.32,1.8,8.46,1.76,8.63C1.72,8.79,1.7,8.99,1.7,9.23l-0.03,2.6c0,0.42,0.44,0.68,0.81,0.47
		L12.18,6.96z"/>
	<g>
		<g>
			<path class="st0" d="M4.28,14.79c0,2.33,0,4.67,0,7c0,1.09-0.18,2.31,0.77,3.17c0.88,0.8,2.01,0.71,3.15,0.71
				c3.2,0,6.41,0,9.61,0c0.85,0,1.78,0.09,2.62-0.04c1.25-0.18,2.11-1.15,2.21-2.22c0.02-0.28,0.01-0.57,0.01-0.85
				c0-2.59,0-5.18,0-7.77c0-1.03-1.84-1.03-1.84,0c0,2.17,0,4.34,0,6.51c0,0.5,0,0.99,0,1.49c0,0.3,0.04,0.63-0.12,0.9
				c-0.36,0.59-1.54,0.39-2.17,0.39c-3.06,0-6.11,0-9.17,0c-0.79,0-1.62,0.06-2.41,0c-1.04-0.08-0.8-1.3-0.8-1.93
				c0-2.45,0-4.9,0-7.35C6.12,13.76,4.28,13.76,4.28,14.79L4.28,14.79z"/>
			<path class="st0" d="M19.35,26.46c-0.27,0-0.54-0.01-0.81-0.02c-0.25-0.01-0.49-0.01-0.73-0.01l-9.91,0
				c-1.09,0-2.34,0.02-3.35-0.91c-1.08-0.98-1.05-2.27-1.03-3.3c0-0.14,0.01-0.29,0.01-0.43v-7c0-0.48,0.21-0.9,0.59-1.19
				c0.3-0.22,0.68-0.34,1.08-0.34c0.96,0,1.68,0.66,1.68,1.53v7.35c0,0.1-0.01,0.22-0.01,0.34c-0.01,0.21-0.03,0.7,0.05,0.82
				c0,0,0.03,0,0.07,0.01c0.49,0.04,1.02,0.03,1.53,0.01c0.27-0.01,0.55-0.01,0.82-0.01h9.17c0.13,0,0.29,0.01,0.45,0.02
				c0.28,0.01,0.94,0.05,1.1-0.07c0-0.02,0-0.2-0.01-0.31l0-1.66v-6.51c0-0.48,0.21-0.9,0.59-1.19c0.3-0.22,0.68-0.34,1.08-0.34
				c0.96,0,1.68,0.66,1.68,1.53l0,8c0,0.23,0.01,0.46-0.01,0.69c-0.13,1.48-1.3,2.67-2.85,2.9C20.15,26.44,19.75,26.46,19.35,26.46z
				 M8.2,24.91h9.61c0.25,0,0.51,0.01,0.78,0.01c0.59,0.02,1.2,0.03,1.74-0.04c0.85-0.12,1.49-0.76,1.56-1.54
				c0.02-0.18,0.01-0.36,0.01-0.53l0-0.25v-7.77c-0.05-0.03-0.28-0.03-0.35,0.03l0.02,8.1c0.01,0.31,0.02,0.74-0.24,1.16
				c-0.53,0.86-1.69,0.8-2.45,0.76c-0.14-0.01-0.26-0.01-0.37-0.01H9.34c-0.26,0-0.52,0.01-0.78,0.01
				c-0.55,0.02-1.13,0.03-1.69-0.02c-1.62-0.13-1.54-1.79-1.51-2.41c0-0.1,0.01-0.19,0.01-0.27v-7.35
				c-0.04-0.03-0.25-0.03-0.33,0.02v6.98c0,0.15,0,0.31-0.01,0.46c-0.02,1.02,0,1.67,0.53,2.15c0.58,0.53,1.39,0.52,2.32,0.51
				L8.2,24.91z"/>
		</g>
	</g>
</g>
</svg>
