<?xml version="1.0" encoding="utf-8"?>
<!-- Generator: Adobe Illustrator 25.0.0, SVG Export Plug-In . SVG Version: 6.00 Build 0)  -->
<svg version="1.1" id="Capa_1" xmlns="http://www.w3.org/2000/svg" xmlns:xlink="http://www.w3.org/1999/xlink" x="0px" y="0px"
	 viewBox="0 0 23 41" style="enable-background:new 0 0 23 41;" xml:space="preserve">
<style type="text/css">
	.st0{fill:#00AF88;}
</style>
<path class="st0" d="M12.35,18.5c-0.29,0.56-0.61,1.01-0.95,1.35c-0.32,0.32-0.69,0.57-1.12,0.76c0.43,0.19,0.81,0.44,1.12,0.76
	c0.34,0.34,0.66,0.8,0.95,1.35l8.13,15.36c0.31,0.58-0.1,1.3-0.75,1.3h-4.04c-0.37,0-0.68-0.03-0.94-0.09
	c-0.26-0.06-0.48-0.14-0.66-0.25c-0.18-0.11-0.34-0.24-0.46-0.39c-0.12-0.16-0.23-0.33-0.32-0.53L6.15,24.87
	c-0.22-0.43-0.51-0.73-0.87-0.92c-0.35-0.19-0.87-0.28-1.56-0.28H2.32l0.07-3.05l-0.07-3.05h1.41c0.69,0,1.21-0.09,1.56-0.28
	c0.35-0.19,0.64-0.5,0.87-0.92l7.16-13.26c0.1-0.2,0.2-0.37,0.32-0.53c0.12-0.16,0.27-0.29,0.46-0.39c0.18-0.11,0.4-0.19,0.66-0.25
	c0.26-0.06,0.57-0.09,0.94-0.09h4.04c0.65,0,1.06,0.71,0.75,1.3L12.35,18.5z"/>
</svg>
