<?xml version="1.0" encoding="utf-8"?>
<!-- Generator: Adobe Illustrator 25.0.0, SVG Export Plug-In . SVG Version: 6.00 Build 0)  -->
<svg version="1.1" id="Capa_1" xmlns="http://www.w3.org/2000/svg" xmlns:xlink="http://www.w3.org/1999/xlink" x="0px" y="0px"
	 viewBox="0 0 26.93 26.93" style="enable-background:new 0 0 26.93 26.93;" xml:space="preserve">
<style type="text/css">
	.st0{fill:#00AF88;}
</style>
<g>
	<g>
		<path class="st0" d="M13.45,0.68c7.06-0.01,12.81,5.74,12.8,12.79c0,7.04-5.73,12.77-12.77,12.78
			c-7.05,0.01-12.81-5.74-12.8-12.79C0.68,6.42,6.41,0.69,13.45,0.68z M7.59,21.46c3.37,2.66,8.89,2.55,12-0.2
			c-0.04-0.06-0.08-0.13-0.14-0.19c-0.1-0.1-0.2-0.2-0.31-0.29c-1-0.84-2.15-1.06-3.42-0.84c-2.26,0.39-4.39-1.24-4.62-3.53
			c-0.23-2.25,1.54-4.3,3.81-4.35c1.28-0.03,2.27-0.53,3.03-1.56c0.85-1.16,1.93-2.08,3.21-2.74c0.09-0.05,0.18-0.12,0.37-0.24
			c-0.81-0.78-1.58-1.52-2.37-2.28C16.46,9.7,10.34,9.58,7.81,5.3C6.68,6.07,5.77,7.04,5,8.26c0.52,0,0.94-0.01,1.36,0
			c1.48,0.03,2.75,0.95,3.25,2.33c0.49,1.36,0.1,2.87-0.99,3.84c-0.6,0.53-0.63,0.74-0.22,1.41c0.54,0.88,0.76,1.82,0.63,2.85
			C8.91,19.79,8.39,20.68,7.59,21.46z M22.83,10.09c-0.23,0.12-0.4,0.19-0.56,0.28c-0.86,0.49-1.56,1.17-2.15,1.96
			c-1.21,1.61-2.84,2.45-4.85,2.55c-0.85,0.04-1.39,0.54-1.32,1.26c0.07,0.72,0.71,1.11,1.54,0.97c1.94-0.32,3.69,0.11,5.26,1.3
			c0.29,0.22,0.56,0.48,0.88,0.75C23.49,16.33,23.88,13.35,22.83,10.09z M3.85,11.1c-0.8,2.58-0.09,6.29,1.72,8.3
			c0.74-0.58,0.84-1.31,0.41-2.13c-0.29-0.55-0.56-1.15-0.64-1.75c-0.16-1.26,0.32-2.32,1.31-3.13c0.26-0.22,0.47-0.5,0.28-0.81
			c-0.12-0.21-0.41-0.44-0.63-0.45C5.48,11.07,4.66,11.1,3.85,11.1z M16.55,4.01c-2.08-0.63-4.09-0.66-6.17,0.02
			c0.77,1.12,1.78,1.69,3.09,1.69C14.77,5.72,15.78,5.14,16.55,4.01z"/>
	</g>
</g>
</svg>
